<?xml version="1.0" encoding="UTF-8"?>
<svg width="240px" height="240px" viewBox="0 0 240 240" version="1.1" xmlns="http://www.w3.org/2000/svg" xmlns:xlink="http://www.w3.org/1999/xlink">

    <title>user-rounded</title>
    <desc>Created with Sketch.</desc>
    <g id="user-rounded" stroke="none" stroke-width="1" fill="none" fill-rule="evenodd">
        <g id="ic-user-rounded">
            <g>
                <rect id="Rectangle-2-Copy-115" fill-opacity="0" fill="#FFFFFF" fill-rule="nonzero" x="0" y="0" width="240" height="240"></rect>
                <g transform="translate(30.000000, 31.000000)" fill="#3664C9" id="Fill-1">
                    <path d="M46.1577761,158.375493 C47.194791,135.119224 66.4279254,116.524149 89.9273284,116.524149 C113.563746,116.524149 132.872104,135.324746 133.714343,158.758328 C120.809418,166.883851 105.862701,171.250866 90.2403134,171.250866 C74.3680746,171.250866 59.2010597,166.746836 46.1577761,158.375493 M64.7622537,81.3878806 C64.7622537,67.5077313 76.0471791,56.2214627 89.9273284,56.2214627 C103.807478,56.2214627 115.100463,67.5077313 115.100463,81.3878806 C115.100463,95.2680299 103.807478,106.561015 89.9273284,106.561015 C76.0471791,106.561015 64.7622537,95.2680299 64.7622537,81.3878806 M163.49897,38.3154925 C161.660015,35.6920597 159.654493,33.1277313 157.525388,30.6842985 C156.159269,29.1301194 153.812552,28.9931045 152.271806,30.3296716 C150.723,31.6810149 150.564493,34.035791 151.914493,35.5832537 C153.870313,37.8211642 155.715985,40.1759403 157.39509,42.5737015 C180.147627,75.122806 176.245388,119.154299 148.114343,147.277284 C145.779716,149.613254 143.316134,151.769224 140.761209,153.782806 C138.116284,133.203701 123.228672,116.411313 103.654343,110.962955 C114.796881,105.771164 122.542254,94.4714627 122.542254,81.3878806 C122.542254,63.4093731 107.913896,48.7796716 89.9273284,48.7796716 C71.9501642,48.7796716 57.321806,63.4093731 57.321806,81.3878806 C57.321806,94.4714627 65.0658358,105.771164 76.2056866,110.961612 C56.7670299,116.371015 41.9546418,132.964597 39.1579254,153.347582 C36.801806,151.458925 34.5249403,149.444 32.3595672,147.277284 C16.8943433,131.820119 8.38464179,111.262507 8.38464179,89.4019104 C8.38464179,67.5359403 16.8943433,46.9783284 32.3595672,31.5211642 C59.9156866,3.96504478 103.38703,-0.329432836 135.717179,21.3189254 C137.439269,22.4741493 139.743,22.0026567 140.876731,20.3007164 C142.025239,18.5920597 141.567179,16.2829552 139.859866,15.1411642 C104.578522,-8.49928358 57.1538955,-3.81122388 27.0979254,26.2595224 C10.2303134,43.1190746 0.942850746,65.545194 0.942850746,89.4019104 C0.942850746,113.253254 10.2303134,135.679373 27.0979254,152.537582 C43.964194,169.405194 66.3903134,178.692657 90.2403134,178.692657 C114.090313,178.692657 136.516433,169.405194 153.375985,152.537582 C184.064642,121.856985 188.316134,73.8225075 163.49897,38.3154925"></path>
                </g>
            </g>
        </g>
    </g>
</svg>
